<?xml version="1.0" standalone="no"?>
<!DOCTYPE svg PUBLIC "-//W3C//DTD SVG 20010904//EN"
 "http://www.w3.org/TR/2001/REC-SVG-20010904/DTD/svg10.dtd">
<svg version="1.0" xmlns="http://www.w3.org/2000/svg"
 width="1024.000000pt" height="1024.000000pt" viewBox="0 0 1024.000000 1024.000000"
 preserveAspectRatio="xMidYMid meet">

<g transform="translate(0.000000,1024.000000) scale(0.100000,-0.100000)"
fill="#000000" stroke="none">
<path d="M0 5120 l0 -5120 5120 0 5120 0 0 5104 c0 2807 -3 5111 -6 5120 -6
15 -466 16 -5120 16 l-5114 0 0 -5120z m5400 3574 c211 -27 462 -98 642 -182
282 -132 571 -354 774 -596 298 -355 473 -733 550 -1191 24 -138 24 -509 1
-652 -51 -317 -151 -588 -311 -843 -143 -228 -223 -327 -412 -510 -202 -196
-480 -375 -750 -485 -94 -38 -290 -96 -407 -121 -87 -18 -277 -30 -277 -18 0
5 -64 9 -143 10 -78 0 -164 3 -192 7 -34 5 -45 4 -35 -3 8 -5 35 -11 60 -12
42 -1 42 -2 9 -5 -34 -4 -277 32 -288 42 -2 3 13 5 35 6 29 1 11 8 -76 29 -63
16 -119 25 -123 20 -5 -4 -18 -5 -29 -2 -14 3 -16 7 -8 12 8 5 1 13 -21 23
-58 26 -99 37 -99 26 0 -5 9 -9 19 -9 11 0 23 -5 27 -12 5 -7 2 -9 -9 -5 -9 3
-35 11 -59 17 -77 21 -313 148 -480 259 -134 90 -190 135 -317 257 -84 81
-179 182 -211 223 -215 284 -389 653 -449 956 -45 229 -53 606 -17 822 22 128
77 338 125 471 152 424 502 864 876 1104 126 81 312 179 422 222 125 50 337
108 472 131 196 33 481 37 701 9z m-1015 -4484 c3 -6 -1 -7 -9 -4 -18 7 -21
14 -7 14 6 0 13 -4 16 -10z m122 -36 c-3 -3 -12 -4 -19 -1 -8 3 -5 6 6 6 11 1
17 -2 13 -5z m576 -91 c-18 -2 -48 -2 -65 0 -18 2 -4 4 32 4 36 0 50 -2 33 -4z
m-2933 -513 l0 -90 -205 0 -205 0 0 -106 0 -106 40 7 c23 4 107 4 188 0 l147
-7 3 -84 3 -84 -191 0 -190 0 0 -154 c0 -85 -4 -166 -10 -180 -9 -25 -13 -26
-88 -26 l-79 0 -6 197 c-4 108 -7 312 -7 454 l0 259 293 3 c160 1 295 3 300 5
4 1 7 -38 7 -88z m788 -237 l-3 -328 -29 -62 c-65 -143 -237 -233 -384 -203
-126 26 -219 98 -269 207 -22 48 -27 77 -35 227 -6 94 -7 240 -3 324 l7 152
92 0 91 0 3 -293 c2 -160 7 -306 13 -323 11 -36 63 -89 102 -103 54 -21 111
-13 155 19 75 54 75 55 73 397 l-2 302 68 4 c37 2 81 4 96 5 l28 2 -3 -327z
m295 251 c32 -41 105 -141 164 -222 58 -81 125 -169 148 -197 23 -27 47 -59
53 -70 8 -14 9 60 5 266 l-6 286 69 6 c38 4 81 7 97 7 l27 0 0 -454 0 -454
-72 -4 c-64 -3 -75 -1 -88 16 -8 11 -46 63 -85 116 -38 52 -103 138 -144 190
-41 52 -95 127 -121 167 l-47 71 -5 -270 c-3 -148 -10 -274 -14 -278 -5 -4
-43 -11 -85 -15 l-76 -6 -6 113 c-4 62 -7 267 -7 455 l0 342 43 4 c93 8 88 11
150 -69z m1025 67 c260 -25 421 -244 382 -519 -19 -138 -73 -235 -170 -306
-92 -68 -151 -81 -372 -81 -102 0 -188 2 -191 5 -2 3 -8 206 -11 452 l-8 447
99 4 c54 1 118 3 143 4 25 1 82 -2 128 -6z m1548 -5 c88 -5 169 -41 221 -99
46 -51 63 -95 70 -178 10 -122 -29 -213 -118 -270 -27 -17 -49 -35 -49 -40 0
-6 8 -22 19 -37 23 -34 144 -229 160 -259 l12 -23 -93 0 -93 1 -88 149 -89
150 -69 0 -69 0 0 -150 0 -150 -90 0 -90 0 0 459 0 460 148 -5 c81 -2 179 -6
218 -8z m556 -431 c0 -245 1 -451 2 -457 1 -9 -24 -14 -86 -16 l-88 -3 -1 253
c0 139 -2 344 -5 455 l-5 202 83 4 c46 1 86 4 91 5 4 1 8 -198 9 -443z m1498
413 c58 -29 151 -96 157 -113 1 -5 -14 -21 -34 -35 -21 -14 -47 -35 -59 -48
l-21 -22 -69 32 c-125 59 -232 48 -317 -31 -55 -50 -72 -97 -72 -196 0 -49 6
-110 14 -135 17 -58 91 -134 146 -149 63 -17 164 -13 213 9 l42 19 0 66 0 65
-89 0 -88 0 -7 38 c-3 20 -6 53 -6 73 l0 36 83 6 c45 4 127 7 182 7 l100 0 -5
-187 c-5 -204 -8 -212 -66 -252 -33 -23 -55 -30 -169 -57 -115 -26 -218 -13
-325 41 -145 73 -219 239 -208 466 6 118 34 184 112 267 97 102 173 133 326
129 91 -2 112 -6 160 -29z m-2662 -12 c34 -16 76 -44 92 -62 31 -36 60 -118
60 -168 -1 -45 -35 -114 -78 -154 -21 -21 -32 -37 -25 -39 36 -12 81 -53 101
-93 19 -37 23 -56 19 -110 -5 -76 -23 -116 -77 -170 -61 -61 -109 -72 -362
-77 l-218 -5 0 456 0 457 213 -3 c210 -3 213 -3 275 -32z m1713 18 c81 -24
139 -57 185 -106 75 -80 98 -133 114 -263 20 -160 -23 -302 -121 -395 -103
-99 -225 -132 -464 -128 l-150 3 -1 453 -2 452 192 0 c148 0 205 -4 247 -16z
m1789 -68 l0 -84 -175 -7 c-96 -4 -188 -5 -204 -2 -37 8 -41 -2 -41 -109 l0
-84 184 0 c101 0 191 -3 200 -6 13 -5 16 -22 16 -80 l0 -74 -200 0 -200 0 3
-94 2 -93 203 -5 c111 -3 206 -8 209 -12 4 -3 9 -44 11 -91 l5 -85 -301 0
-301 0 0 455 -1 455 295 0 295 0 0 -84z m-2196 -1022 c8 -21 6 -195 -2 -216
-6 -15 -18 -6 -65 47 -32 36 -63 65 -68 65 -7 0 -9 -23 -7 -57 3 -53 1 -58
-18 -61 -22 -3 -22 -1 -17 105 3 59 8 110 10 113 2 2 29 -24 59 -58 31 -34 60
-62 65 -62 5 0 9 21 9 48 0 77 18 117 34 76z m-2014 -49 c42 -50 46 -53 52
-32 3 12 6 34 7 50 1 30 15 36 25 11 7 -18 8 -204 1 -204 -2 0 -24 21 -47 46
-23 25 -51 50 -61 56 -19 10 -20 7 -15 -35 6 -53 3 -60 -23 -46 -16 8 -19 21
-19 72 0 81 10 137 24 137 6 0 31 -25 56 -55z m264 49 c9 -3 16 -17 16 -30 0
-21 -5 -23 -52 -26 -52 -3 -53 -4 -56 -36 -7 -68 68 -102 91 -42 6 17 14 30
18 30 12 0 20 -51 14 -80 -12 -56 -95 -44 -146 21 -26 34 -31 46 -26 76 8 47
35 74 84 83 21 4 39 8 40 9 1 0 8 -2 17 -5z m1288 -146 c-5 -80 -13 -94 -32
-57 -16 28 -80 99 -91 99 -5 0 -9 -25 -9 -55 0 -48 -2 -55 -20 -55 -24 0 -24
-1 -8 118 l12 92 58 -57 58 -57 0 36 c0 20 5 49 12 65 l11 28 7 -40 c4 -22 5
-75 2 -117z m-3474 109 c30 -28 29 -70 -4 -96 -15 -12 -35 -21 -45 -21 -35 0
-49 -12 -49 -42 0 -46 -24 -29 -32 23 -7 50 -10 154 -4 160 2 2 28 2 58 1 36
-3 60 -10 76 -25z m88 -66 l7 -71 32 0 c21 0 35 -6 39 -16 8 -22 10 -21 -56
-26 l-58 -5 0 102 c0 56 3 105 7 109 12 12 22 -20 29 -93z m435 89 c37 0 49
-4 49 -15 0 -10 -10 -15 -34 -15 -47 0 -66 -9 -66 -30 0 -13 11 -19 46 -25 55
-8 54 -28 -2 -35 -37 -5 -39 -7 -42 -43 -3 -30 -7 -37 -20 -35 -11 2 -17 13
-16 31 4 180 4 179 20 173 9 -3 38 -6 65 -6z m345 2 c14 -10 25 -40 16 -46 -5
-3 -14 -1 -22 4 -16 10 -50 -5 -50 -21 0 -5 15 -16 33 -24 51 -21 61 -38 45
-72 -18 -37 -61 -52 -95 -33 -47 26 -40 40 16 33 43 -5 51 -3 51 11 0 9 -19
25 -45 38 -54 26 -57 47 -16 89 30 29 47 35 67 21z m1497 -3 c32 -15 47 -49
47 -108 0 -55 -26 -91 -66 -91 -32 0 -114 84 -114 117 0 28 61 93 88 93 12 0
32 -5 45 -11z m202 1 c10 -16 -19 -51 -48 -57 -40 -8 -42 -20 -4 -27 56 -11
70 -26 56 -64 -16 -47 -51 -63 -95 -43 -38 17 -44 31 -13 31 28 0 59 18 59 35
0 8 -15 17 -35 21 -31 5 -35 10 -35 36 0 39 40 78 79 78 16 0 32 -4 36 -10z
m1115 -26 c55 -49 55 -87 2 -144 -53 -54 -87 -55 -136 0 -48 54 -49 95 -2 144
45 49 82 49 136 0z m794 22 c74 -31 88 -103 31 -161 -44 -43 -74 -51 -114 -31
-34 18 -55 47 -65 87 -10 44 53 118 102 119 7 0 28 -6 46 -14z m275 0 c16 -19
8 -22 -71 -31 -38 -3 -68 -11 -68 -15 0 -15 37 -30 74 -30 64 0 55 -29 -14
-40 -31 -5 -35 -9 -38 -38 -3 -29 -35 -62 -48 -49 -3 2 -1 38 4 79 6 42 8 87
5 101 -6 30 5 34 88 36 38 1 60 -4 68 -13z m289 -13 c3 -17 -2 -22 -25 -25
-28 -3 -28 -4 -25 -64 4 -59 -8 -104 -28 -104 -5 0 -10 37 -12 83 l-3 82 -40
3 c-46 4 -60 14 -51 37 5 13 20 15 93 13 82 -3 88 -5 91 -25z m170 15 c27 -27
13 -37 -38 -31 -70 8 -68 -17 5 -52 61 -29 68 -46 34 -89 -14 -17 -30 -26 -49
-26 -38 0 -80 19 -80 37 0 15 36 18 45 3 3 -5 15 -10 26 -10 36 0 21 37 -31
74 -55 40 -57 45 -34 81 14 21 24 25 63 25 26 0 52 -5 59 -12z m-4851 -33 c32
-32 35 -39 30 -78 -6 -47 -52 -97 -88 -97 -34 0 -78 29 -95 61 -33 65 14 149
83 149 27 0 43 -8 70 -35z m373 15 c0 -17 -7 -20 -45 -20 -38 0 -45 -3 -45
-19 0 -16 8 -20 37 -23 51 -4 53 -24 3 -32 -31 -5 -40 -11 -40 -26 0 -17 7
-20 45 -20 80 0 49 -33 -40 -43 l-51 -6 4 72 c1 40 5 87 8 105 5 32 5 32 64
32 53 0 60 -2 60 -20z m314 10 c14 -5 26 -17 26 -26 0 -11 -5 -14 -17 -9 -33
14 -58 16 -73 5 -13 -9 -11 -13 10 -30 14 -11 35 -20 46 -20 12 0 27 -7 34
-15 32 -38 -53 -108 -107 -89 -15 5 -29 17 -31 26 -3 14 4 17 39 15 56 -3 61
17 10 43 -45 23 -53 49 -25 88 16 24 47 28 88 12z m546 -90 c17 -41 34 -81 37
-87 9 -23 -17 -14 -57 18 -43 35 -64 33 -82 -6 -6 -14 -15 -25 -20 -25 -18 0
-7 48 22 93 17 26 30 54 30 62 0 7 3 21 6 30 10 26 28 2 64 -85z m1520 90 c24
-13 60 -72 60 -98 0 -12 -14 -37 -31 -57 -27 -30 -37 -35 -75 -35 -60 0 -84
25 -84 85 0 25 7 61 14 80 14 32 19 35 56 35 23 0 50 -4 60 -10z m1180 -22
c38 -63 26 -82 -70 -106 -30 -7 -35 -12 -32 -35 3 -22 -1 -27 -17 -27 -20 0
-21 6 -21 100 l0 100 60 0 c57 0 61 -2 80 -32z m538 -71 c2 -81 0 -98 -13
-103 -9 -4 -19 -3 -23 0 -3 4 -8 52 -10 107 l-4 101 23 -4 c23 -3 24 -6 27
-101z m-3522 71 c17 -13 41 -33 55 -46 l24 -23 5 43 c4 31 10 44 24 46 17 4
18 -3 15 -81 -2 -47 -7 -89 -11 -93 -4 -4 -34 17 -65 47 l-58 54 -3 -57 c-3
-59 -9 -67 -30 -46 -18 18 -11 178 7 178 4 0 21 -10 37 -22z m-1633 -15 c8
-16 22 -41 31 -58 9 -16 16 -38 16 -48 0 -15 -6 -16 -41 -11 -26 4 -49 2 -65
-6 -13 -7 -27 -10 -30 -7 -10 10 56 157 70 157 3 0 11 -12 19 -27z m1482 -30
c10 -91 13 -94 14 -15 0 39 5 72 10 72 12 0 21 -51 21 -116 l0 -54 -35 3 c-20
3 -37 6 -39 8 -6 6 -8 39 -7 102 1 42 5 57 15 57 10 0 16 -17 21 -57z m661
-110 c-3 -7 -11 -13 -17 -13 -14 0 -8 148 7 171 10 15 19 -133 10 -158z m1108
145 c8 -13 16 -52 18 -88 3 -60 2 -65 -17 -62 -24 3 -67 8 -99 10 -37 3 -40
38 -8 99 34 66 49 69 43 11 -2 -13 5 -18 24 -18 22 0 24 3 15 19 -24 45 -3 70
24 29z m-751 -45 c11 -10 -13 -33 -34 -33 -18 0 -26 20 -12 33 8 9 38 9 46 0z
m1932 -28 c0 -18 -7 -20 -60 -20 -47 0 -60 3 -60 15 0 16 48 29 95 26 18 -1
25 -7 25 -21z m-1347 -15 c46 0 8 -23 -50 -31 -29 -3 -54 -5 -56 -4 -2 2 2 13
8 25 10 18 18 21 42 16 17 -3 42 -6 56 -6z m-907 -280 c12 0 27 13 37 30 19
33 30 37 38 15 4 -8 -8 -37 -25 -63 -24 -38 -31 -60 -31 -100 0 -28 -5 -54
-10 -57 -13 -8 -30 37 -30 78 0 21 -12 47 -35 76 -34 42 -43 70 -28 85 4 4 21
-9 36 -28 16 -20 38 -36 48 -36z m-331 40 c28 -28 17 -40 -34 -40 -51 0 -66
-13 -66 -59 0 -49 24 -71 77 -71 50 0 55 -18 11 -34 -35 -12 -70 -1 -107 33
-38 36 -40 71 -7 125 38 64 90 82 126 46z m769 6 c14 -16 8 -21 -37 -31 l-34
-7 3 -81 c3 -71 1 -82 -14 -85 -15 -3 -17 6 -17 82 l0 85 -32 3 c-40 4 -52 34
-16 41 55 10 136 7 147 -7z m173 -13 c32 -35 48 -66 48 -94 0 -26 -80 -109
-105 -109 -9 0 -35 17 -56 39 -34 33 -39 45 -39 82 0 52 4 58 50 87 46 29 71
28 102 -5z m336 15 c26 -26 13 -37 -49 -40 -54 -3 -65 -7 -82 -30 -18 -24 -19
-31 -7 -52 14 -28 56 -46 104 -46 27 0 29 -2 15 -15 -8 -9 -32 -18 -52 -22
-33 -5 -41 -2 -77 35 -60 60 -52 117 24 163 35 21 106 25 124 7z m131 -3 c33
-17 46 -54 30 -88 -8 -18 -7 -32 5 -62 19 -45 19 -45 3 -45 -8 0 -30 16 -50
35 -43 42 -47 43 -47 11 0 -31 -10 -56 -21 -56 -10 0 -12 203 -2 213 11 12 53
8 82 -8z m211 -11 c17 -15 37 -39 46 -55 12 -25 13 -33 0 -62 -32 -77 -90 -97
-145 -51 -52 44 -56 59 -27 109 24 41 69 85 87 85 4 0 21 -12 39 -26z m110
-13 c9 -35 35 -70 44 -60 2 2 8 19 13 38 12 47 27 49 51 6 27 -45 40 -44 48 4
5 30 10 38 21 34 12 -5 14 -18 10 -67 -7 -77 -25 -138 -39 -134 -6 2 -24 29
-39 59 -24 45 -29 50 -29 28 0 -27 -26 -99 -36 -99 -2 0 -20 32 -39 72 -23 48
-35 87 -35 115 0 54 16 56 30 4z m740 -52 c0 -119 -6 -129 -75 -129 -51 0 -55
2 -55 24 0 47 -9 56 -59 56 -52 0 -59 -4 -84 -42 -28 -44 -44 -35 -52 29 -4
31 -11 68 -16 82 -12 30 4 50 41 52 38 3 107 -19 114 -36 4 -12 -8 -15 -71
-15 -106 0 -83 -19 29 -24 l86 -4 12 46 c14 55 30 41 30 -25 0 -40 1 -42 23
-34 12 5 24 17 25 27 6 30 33 84 43 84 5 0 9 -41 9 -91z m308 -25 c4 -91 -4
-124 -29 -124 -10 0 -12 162 -3 209 12 59 29 15 32 -85z m226 1 c7 -110 -3
-135 -37 -90 -36 48 -78 95 -87 95 -4 0 -6 -28 -6 -62 1 -50 -2 -63 -14 -63
-13 0 -15 18 -13 110 2 61 3 112 3 115 0 3 27 -24 60 -60 l59 -65 1 61 c0 61
8 85 21 62 3 -7 9 -53 13 -103z m-2829 80 c29 -28 32 -61 10 -92 -14 -21 -14
-26 5 -64 26 -49 16 -66 -14 -25 -45 61 -53 69 -64 62 -7 -4 -12 -25 -12 -47
0 -28 -4 -39 -15 -39 -12 0 -15 19 -15 115 l0 115 40 0 c30 0 47 -7 65 -25z
m388 0 c18 -12 27 -26 27 -44 0 -34 -40 -73 -74 -73 -24 0 -26 -4 -26 -52 l-1
-51 -19 24 c-17 20 -20 38 -20 123 l0 101 43 -5 c24 -3 55 -13 70 -23z m2054
15 c40 0 73 -42 73 -93 0 -63 -22 -85 -99 -103 -35 -8 -66 -13 -68 -10 -3 3
-2 53 2 112 l7 106 30 -6 c17 -3 41 -6 55 -6z m-551 -36 c58 -60 55 -106 -9
-144 -54 -34 -112 -23 -105 20 2 18 10 23 46 25 43 3 72 18 72 38 0 22 -44 57
-72 57 -26 0 -28 -3 -28 -37 0 -52 -10 -35 -15 26 l-5 51 42 0 c34 0 46 -6 74
-36z"/>
<path d="M4865 8509 c-190 -18 -437 -85 -625 -169 -280 -125 -430 -228 -641
-439 -131 -132 -171 -179 -257 -308 -124 -184 -178 -291 -247 -483 -49 -136
-114 -384 -104 -395 10 -9 166 35 286 80 292 111 556 293 754 522 111 128 157
193 247 354 117 208 161 306 163 369 1 30 7 61 12 68 6 8 37 12 87 12 l77 0 5
-102 c6 -121 27 -179 127 -353 105 -183 307 -447 337 -442 18 3 218 242 277
331 30 44 85 142 123 216 l69 135 5 105 5 105 83 3 82 3 0 -43 c0 -106 42
-207 180 -438 130 -218 168 -269 305 -405 260 -261 596 -453 889 -508 89 -17
86 -23 55 96 -121 481 -363 884 -718 1201 -93 82 -283 207 -423 277 -330 166
-774 246 -1153 208z m325 -507 c103 -104 21 -290 -114 -260 -73 16 -109 69
-107 156 2 96 38 129 144 131 41 1 53 -4 77 -27z m-1133 -64 c22 -18 53 -84
53 -113 0 -67 -49 -125 -105 -125 -61 0 -125 67 -125 129 0 51 42 113 85 124
27 7 75 -1 92 -15z m2178 8 c40 -17 75 -68 75 -109 0 -63 -58 -127 -117 -127
-108 0 -158 115 -86 201 42 49 73 58 128 35z m271 -292 c93 -44 101 -201 12
-250 -82 -46 -202 45 -184 140 10 50 47 99 86 113 46 16 46 16 86 -3z m-2741
-10 c87 -41 105 -162 35 -229 -77 -74 -200 -2 -200 115 0 52 18 83 64 111 38
23 58 24 101 3z m-245 -333 c60 -44 63 -140 5 -198 -36 -36 -66 -41 -119 -19
-57 24 -87 143 -48 193 42 54 109 64 162 24z m3274 4 c32 -29 46 -64 46 -112
0 -49 -63 -113 -111 -113 -94 0 -161 116 -111 193 29 43 53 56 103 57 35 0 52
-6 73 -25z"/>
<path d="M4420 7623 c-13 -27 -47 -86 -75 -133 l-50 -85 -6 -490 c-3 -269 -7
-491 -7 -492 -1 -2 -20 -3 -41 -3 -77 0 -71 -35 -71 427 l0 415 -39 -49 c-21
-27 -58 -66 -81 -85 l-42 -36 -1 -334 -2 -333 -50 0 -50 0 -5 280 c-3 180 -9
279 -15 276 -5 -2 -38 -25 -72 -52 l-63 -49 -2 -228 -3 -227 -57 -3 -58 -3 0
189 c0 104 -3 192 -7 195 -3 4 -14 0 -23 -8 -10 -9 -46 -31 -80 -49 l-62 -33
1 -140 c2 -155 3 -153 -65 -153 l-34 0 0 109 c0 144 0 145 -57 120 -24 -10
-51 -19 -59 -19 -11 0 -14 -21 -14 -105 l0 -105 -54 0 -55 0 -7 81 c-6 68 -9
79 -23 74 -9 -4 -39 -9 -68 -12 l-51 -6 -7 -114 c-4 -63 -5 -116 -3 -118 2 -3
335 -6 740 -7 l736 -3 7 470 c3 259 5 563 3 678 l-3 207 -25 -47z"/>
<path d="M5739 7573 c-3 -202 -1 -1254 2 -1256 2 -1 330 0 729 3 l725 5 3 112
3 111 -56 12 c-31 7 -59 10 -61 7 -3 -3 -8 -37 -11 -76 l-6 -71 -48 0 -49 0 0
94 0 94 -61 21 c-34 11 -66 18 -70 15 -5 -3 -9 -52 -9 -110 l0 -104 -60 0 -60
0 0 138 0 138 -67 34 c-38 19 -71 36 -75 38 -4 2 -9 -77 -10 -175 l-3 -178
-52 -3 -53 -3 0 224 0 223 -35 17 c-19 9 -52 32 -73 51 -21 20 -42 33 -46 29
-3 -3 -6 -127 -6 -275 l0 -268 -49 0 -48 0 -7 86 c-4 47 -6 196 -5 331 l2 246
-39 29 c-22 16 -60 52 -86 81 l-47 52 -1 -407 0 -408 -58 0 -59 0 -1 487 0
487 -27 33 c-14 18 -44 67 -66 108 -22 41 -45 77 -50 81 -5 3 -9 -20 -10 -53z"/>
<path d="M4618 7283 l-3 -322 25 5 c90 20 164 55 251 119 32 24 65 45 71 47
16 6 -32 71 -69 95 -20 14 -27 15 -31 5 -2 -7 -15 -24 -29 -37 -46 -42 -70 -6
-38 55 18 35 13 50 -66 167 -27 40 -49 74 -49 76 0 2 -13 28 -30 58 l-29 54
-3 -322z"/>
<path d="M5521 7522 c-19 -31 -66 -104 -104 -162 -55 -84 -74 -105 -93 -106
-14 -1 -42 -17 -62 -36 -20 -19 -47 -42 -59 -50 l-23 -15 23 -20 c28 -27 208
-126 276 -152 94 -37 86 -63 86 289 0 171 -2 310 -5 310 -3 0 -20 -26 -39 -58z"/>
<path d="M4950 6945 l-65 -43 -5 -238 -5 -239 -54 0 -54 0 -1 197 c-1 127 -5
201 -12 208 -8 8 -19 6 -39 -4 -15 -8 -46 -18 -68 -21 -37 -7 -39 -9 -33 -37
3 -17 6 -126 6 -242 l0 -211 470 0 470 0 0 248 0 247 -22 0 c-13 0 -43 9 -67
20 -24 11 -47 18 -50 14 -5 -5 -17 -231 -20 -376 l-1 -48 -45 0 -45 0 -1 53
c0 28 -1 135 -2 237 l-2 185 -60 32 c-33 18 -67 32 -75 30 -13 -2 -16 -42 -20
-267 l-5 -265 -55 0 -55 0 -3 283 c-1 155 -6 282 -10 281 -4 0 -36 -20 -72
-44z"/>
<path d="M4620 5971 c0 -186 -5 -216 -34 -205 -13 5 -93 -74 -113 -111 -7 -11
-15 -16 -20 -12 -4 5 -9 115 -10 245 -1 130 -2 242 -2 247 -1 7 -60 8 -173 3
-95 -4 -424 -5 -730 -1 -382 4 -558 3 -558 -4 0 -28 34 -189 60 -283 92 -334
323 -719 577 -961 83 -79 257 -210 383 -291 269 -171 622 -298 915 -329 233
-25 616 28 849 116 126 48 350 160 444 223 425 286 769 735 896 1168 44 152
76 293 76 340 0 32 -2 35 -22 27 -26 -9 -1378 -7 -1408 2 -19 6 -19 0 -13
-222 3 -126 3 -245 -1 -265 l-7 -36 -47 46 c-27 26 -65 58 -85 72 l-37 25 0
190 0 190 -442 -3 c-267 -1 -453 1 -470 7 l-28 10 0 -188z m1453 -21 c40 -45
39 -108 -4 -144 l-31 -26 1 -549 2 -549 -45 -31 -44 -31 -9 33 c-4 17 -7 280
-6 582 l3 550 -30 20 c-63 42 -47 135 30 173 51 25 92 17 133 -28z m737 21
c38 -28 62 -75 54 -106 -3 -14 -20 -40 -38 -57 l-31 -31 4 -202 3 -202 -43
-37 -44 -37 -7 43 c-3 24 -7 130 -7 237 l-1 194 -40 37 c-34 31 -40 43 -40 77
0 30 7 46 28 66 52 50 110 57 162 18z m-3295 -11 c14 -13 29 -38 35 -56 14
-42 -5 -83 -53 -113 l-34 -21 -7 -202 c-4 -112 -9 -217 -12 -235 l-6 -32 -34
25 -34 26 0 217 c0 208 -1 217 -21 229 -11 7 -27 29 -35 48 -14 32 -13 39 3
72 35 71 143 94 198 42z m381 5 c14 -9 32 -32 40 -52 19 -44 5 -93 -33 -121
l-26 -19 -1 -456 0 -455 -48 24 -48 24 3 428 2 427 -37 36 c-65 63 -61 118 12
167 40 27 92 26 136 -3z m327 16 c43 -17 77 -62 77 -102 0 -27 -8 -45 -34 -73
l-35 -36 2 -497 c0 -274 -3 -531 -7 -570 -9 -81 -21 -90 -69 -53 l-26 21 4
553 4 553 -34 33 c-49 47 -49 98 -1 146 36 36 71 43 119 25z m2193 -25 c28
-28 34 -42 34 -75 0 -34 -6 -46 -41 -80 -41 -39 -42 -41 -36 -96 3 -30 1 -223
-4 -428 l-9 -372 -50 -49 c-27 -28 -52 -47 -56 -44 -3 4 0 222 6 486 l13 480
-22 30 c-31 44 -37 86 -16 119 29 46 57 63 104 63 36 0 49 -6 77 -34z m-1161
-162 c112 -29 256 -124 341 -224 61 -72 135 -211 159 -300 24 -86 24 -243 1
-330 -24 -88 -93 -232 -148 -306 -56 -75 -111 -121 -208 -172 -91 -48 -126
-60 -216 -71 -72 -9 -115 -1 -54 10 28 5 23 7 -27 8 -37 0 -65 -4 -69 -10 -11
-18 -123 -3 -192 25 -146 59 -299 196 -369 331 -55 107 -73 177 -80 320 -4 95
-2 134 12 184 47 180 158 337 310 438 81 54 135 81 198 98 72 19 267 19 342
-1z m-1574 -155 c34 -37 37 -67 8 -103 -22 -28 -58 -34 -105 -16 -25 10 -26
14 -21 56 5 50 38 94 70 94 10 0 32 -14 48 -31z m2909 -6 c16 -21 20 -36 16
-62 -8 -53 -24 -63 -83 -55 -48 6 -51 8 -56 38 -13 89 72 144 123 79z m-2542
-202 c5 -48 -5 -79 -29 -91 -50 -27 -103 66 -63 111 13 14 28 19 53 17 33 -3
36 -6 39 -37z m-433 5 c49 -21 58 -47 63 -176 4 -120 -5 -191 -25 -197 -7 -3
-32 14 -55 36 l-43 40 3 138 c2 129 7 173 18 173 3 0 20 -6 39 -14z m2949 -32
c3 -9 6 -49 6 -90 l0 -75 -30 16 c-21 11 -30 23 -30 40 0 14 -4 25 -10 25 -21
0 -9 52 16 75 31 29 40 31 48 9z m-10 -298 c-10 -8 -21 -12 -23 -10 -3 2 4 11
15 18 10 8 21 12 23 10 3 -2 -4 -11 -15 -18z m-1481 -723 c-7 -2 -19 -2 -25 0
-7 3 -2 5 12 5 14 0 19 -2 13 -5z"/>
<path d="M4980 5656 c-86 -19 -151 -47 -224 -100 -75 -54 -113 -94 -159 -166
-50 -80 -67 -146 -67 -264 0 -121 19 -208 62 -289 38 -71 164 -208 222 -242
67 -39 159 -58 286 -59 175 -2 244 27 360 150 77 82 133 183 160 290 50 193 3
373 -136 523 -54 58 -83 80 -158 117 -86 42 -98 46 -186 49 -59 3 -120 -1
-160 -9z m50 -181 l0 -75 40 0 40 0 0 44 c0 24 3 58 6 75 6 31 8 32 53 29 l46
-3 -3 -72 -4 -73 34 0 c70 0 138 -76 138 -155 0 -40 -12 -68 -42 -102 l-20
-21 45 -41 c57 -52 71 -86 65 -156 -4 -46 -10 -62 -38 -90 -36 -38 -82 -55
-144 -55 l-38 0 3 -60 c2 -33 1 -60 -3 -60 -5 0 -26 0 -48 0 l-40 0 0 60 0 60
-48 0 -47 0 0 -62 0 -63 -45 0 -45 0 -3 65 -3 65 -75 -3 -75 -4 3 59 3 58 43
3 42 3 2 155 c1 85 2 171 3 192 l0 37 -45 0 c-25 0 -48 4 -52 10 -4 5 -8 31
-8 56 0 57 10 63 97 53 l63 -6 0 76 0 76 50 0 50 0 0 -75z"/>
<path d="M4994 5236 c3 -32 6 -67 6 -76 0 -15 9 -16 78 -13 97 6 138 18 159
49 13 20 13 29 3 54 -15 36 -26 39 -154 42 l-98 3 6 -59z"/>
<path d="M5000 4972 l0 -70 79 -7 c44 -4 99 -4 122 0 81 14 117 86 62 122 -21
14 -53 19 -145 22 l-118 3 0 -70z"/>
<path d="M4689 4536 c14 -17 122 -76 138 -76 4 0 -12 12 -37 26 -25 14 -61 35
-80 47 -29 18 -33 18 -21 3z"/>
<path d="M5380 4490 c-9 -6 -10 -10 -3 -10 6 0 15 5 18 10 8 12 4 12 -15 0z"/>
<path d="M3797 4529 c7 -7 15 -10 18 -7 3 3 -2 9 -12 12 -14 6 -15 5 -6 -5z"/>
<path d="M4045 4369 c8 -13 124 -71 134 -67 4 2 -25 20 -66 40 -40 20 -71 33
-68 27z"/>
<path d="M6095 4350 c-3 -5 -1 -10 4 -10 6 0 11 5 11 10 0 6 -2 10 -4 10 -3 0
-8 -4 -11 -10z"/>
<path d="M6056 4335 c-16 -12 -17 -15 -4 -15 9 0 18 7 22 15 7 18 6 18 -18 0z"/>
<path d="M6000 4310 c-8 -5 -10 -10 -5 -10 6 0 17 5 25 10 8 5 11 10 5 10 -5
0 -17 -5 -25 -10z"/>
<path d="M4748 4123 c6 -2 18 -2 25 0 6 3 1 5 -13 5 -14 0 -19 -2 -12 -5z"/>
<path d="M5288 4103 c6 -2 18 -2 25 0 6 3 1 5 -13 5 -14 0 -19 -2 -12 -5z"/>
<path d="M4075 3199 l0 -284 100 6 c112 7 163 24 214 72 50 48 73 109 74 192
0 89 -15 143 -56 197 -54 71 -104 92 -227 96 l-105 4 0 -283z"/>
<path d="M5618 3340 c-2 -109 0 -144 10 -148 7 -2 65 0 129 5 113 10 117 11
145 42 53 59 31 178 -39 214 -15 8 -76 18 -135 22 l-107 7 -3 -142z"/>
<path d="M4880 3375 l0 -105 63 1 c123 2 178 13 203 43 16 17 24 40 24 62 0
81 -43 104 -190 104 l-100 0 0 -105z"/>
<path d="M4888 3124 c-5 -4 -8 -52 -8 -106 l0 -98 129 0 c113 0 131 2 154 20
36 29 52 82 35 116 -27 57 -59 69 -186 72 -64 2 -120 0 -124 -4z"/>
<path d="M6650 3217 c0 -146 -3 -273 -7 -283 -6 -16 2 -17 105 -12 87 4 121
10 157 28 88 43 143 157 132 276 -7 77 -24 119 -68 169 -49 56 -103 76 -220
82 l-99 6 0 -266z"/>
<path d="M2474 2476 c-11 -28 4 -48 33 -44 22 2 28 8 28 28 0 20 -6 26 -28 28
-18 2 -29 -2 -33 -12z"/>
<path d="M4839 2466 c-19 -40 14 -69 78 -70 41 -1 48 2 51 19 4 28 -37 65 -81
72 -32 5 -38 3 -48 -21z"/>
<path d="M6131 2476 c-7 -8 -11 -29 -9 -48 7 -71 109 -79 116 -9 4 43 -21 71
-63 71 -18 0 -38 -6 -44 -14z"/>
<path d="M6955 2466 c-26 -26 -25 -46 3 -78 23 -27 57 -22 86 13 31 36 32 50
8 72 -27 24 -69 21 -97 -7z"/>
<path d="M2816 2468 c-51 -72 35 -136 87 -65 l21 27 -21 28 c-26 36 -66 41
-87 10z"/>
<path d="M5608 2479 c-27 -15 -25 -95 2 -104 23 -7 56 9 70 35 11 20 -2 70
-19 70 -5 0 -15 2 -23 5 -7 2 -21 0 -30 -6z"/>
<path d="M6762 2488 c-7 -7 -12 -22 -12 -35 0 -17 6 -23 23 -23 13 0 31 6 42
13 17 13 17 15 -3 35 -25 25 -33 27 -50 10z"/>
<path d="M5412 2388 c2 -15 10 -23 23 -23 13 0 21 8 23 23 3 18 -1 22 -23 22
-22 0 -26 -4 -23 -22z"/>
<path d="M4938 2119 c-25 -14 -24 -80 0 -102 54 -49 118 25 82 94 -12 21 -53
25 -82 8z"/>
<path d="M5452 2118 c8 -12 24 -28 36 -36 35 -23 29 12 -7 37 -37 27 -47 27
-29 -1z"/>
<path d="M5632 2098 c-21 -21 -15 -67 12 -79 50 -23 109 36 76 77 -15 17 -71
19 -88 2z"/>
<path d="M6266 2053 c-9 -9 -7 -33 3 -33 12 0 22 28 12 34 -5 3 -11 3 -15 -1z"/>
<path d="M6450 2021 c0 -20 34 -30 55 -15 18 14 18 14 -2 14 -12 0 -28 3 -37
6 -9 3 -16 1 -16 -5z"/>
<path d="M4197 2123 c-13 -13 -7 -41 11 -45 26 -7 42 1 42 22 0 23 -37 39 -53
23z"/>
<path d="M4573 2124 c-16 -43 35 -75 57 -34 14 26 7 36 -26 43 -16 3 -27 0
-31 -9z"/>
<path d="M6660 2065 c0 -61 1 -65 23 -65 31 0 47 18 47 52 0 44 -20 78 -47 78
-22 0 -23 -4 -23 -65z"/>
</g>
</svg>
